# xmcd
# 
# Track frame offsets:
#     150
#     16575
#     34417
#     57632
#     75350
#     91780
#     107997
#     125402
#     141547
#     160370
#     176477
#     196125
#     221850
# 
# Disc length: 3322
# 
# Revision: 12
# Processed by: cddbd v1.5.2PL0 Copyright (c) Steve Scherf et al.
# Submitted via: fre:ac v1.0.31
# 
DISCID=b40cf80d
DTITLE=Daryl Hall and John Oates - Private Eyes
DYEAR=1981
DGENRE=Rock/Pop
TTITLE0=Private Eyes
TTITLE1=Looking For A Good Sign
TTITLE2=I Can't Go For That (No Can Do)
TTITLE3=Mano A Mano
TTITLE4=Did It In A Minute
TTITLE5=Head Above Water
TTITLE6=Tell Me What You Want
TTITLE7=Friday Let Me Down
TTITLE8=Unguarded Minute
TTITLE9=Your Imagination
TTITLE10=Some Men
TTITLE11=Your Imagination
TTITLE12=I Can't Go For That (No Can Do)
EXTD=YEAR: 1981
EXTT0=
EXTT1=
EXTT2=
EXTT3=
EXTT4=
EXTT5=
EXTT6=
EXTT7=
EXTT8=
EXTT9=
EXTT10=
EXTT11=
EXTT12=
PLAYORDER=
